<?xml version="1.0" encoding="UTF-8" standalone="no"?>
<svg
   xmlns:dc="http://purl.org/dc/elements/1.1/"
   xmlns:cc="http://creativecommons.org/ns#"
   xmlns:rdf="http://www.w3.org/1999/02/22-rdf-syntax-ns#"
   xmlns:svg="http://www.w3.org/2000/svg"
   xmlns="http://www.w3.org/2000/svg"
   xmlns:xlink="http://www.w3.org/1999/xlink"
   xmlns:sodipodi="http://sodipodi.sourceforge.net/DTD/sodipodi-0.dtd"
   xmlns:inkscape="http://www.inkscape.org/namespaces/inkscape"
   id="svg2"
   height="29pt"
   width="29pt"
   version="1.0"
   viewBox="13 43 29 29"
   sodipodi:version="0.32"
   inkscape:version="0.46"
   sodipodi:docname="ShadesaveTiddler.svg"
   inkscape:output_extension="org.inkscape.output.svg.inkscape">
  <sodipodi:namedview
     inkscape:window-height="750"
     inkscape:window-width="1280"
     inkscape:pageshadow="2"
     inkscape:pageopacity="0.0"
     guidetolerance="10.0"
     gridtolerance="10.0"
     objecttolerance="10.0"
     borderopacity="1.0"
     bordercolor="#666666"
     pagecolor="#ffffff"
     id="base"
     showgrid="true"
     inkscape:zoom="10.35"
     inkscape:cx="10.890778"
     inkscape:cy="14.784865"
     inkscape:window-x="0"
     inkscape:window-y="23"
     inkscape:current-layer="svg2"
     showguides="true"
     inkscape:guide-bbox="true">
    <inkscape:grid
       type="xygrid"
       id="grid3163"
       visible="true"
       enabled="true" />
  </sodipodi:namedview>
  <metadata
     id="metadata34">
    <rdf:RDF>
      <cc:Work
         rdf:about="">
        <dc:format>image/svg+xml</dc:format>

        <dc:type
           rdf:resource="http://purl.org/dc/dcmitype/StillImage" />
        <dc:title />
      </cc:Work>
    </rdf:RDF>
  </metadata>
  <defs
     id="defs6">
    <inkscape:perspective
       sodipodi:type="inkscape:persp3d"
       inkscape:vp_x="0 : 18.125 : 1"
       inkscape:vp_y="0 : 1000 : 0"
       inkscape:vp_z="36.25 : 18.125 : 1"
       inkscape:persp3d-origin="18.125 : 12.083333 : 1"
       id="perspective17" />
    <title
       id="title26">Layer 1</title>

    <title
       id="title22">Canvas 1</title>
    <linearGradient
       id="linearGradient2864"
       y2="27.646"
       gradientUnits="userSpaceOnUse"
       x2="-45.8"
       y1="27.646"
       x1="-57.66">
      <stop
         id="stop3209"
         stop-color="#208220"
         offset="0" />
      <stop
         id="stop3236"
         stop-color="#32be32"
         offset="0.66462" />
      <stop
         id="stop3211"
         stop-color="#208220"
         offset="1" />
    </linearGradient>
  </defs>
  <use
     x="0"
     y="0"
     xlink:href="#rect4027"
     id="iconShade"
     transform="translate(1.05,2.075)"
     width="29"
     height="29"
     style="opacity:0.2" />

  <path
     style="opacity:1;fill:#000000;fill-opacity:0.96078431;fill-rule:evenodd;stroke:none;stroke-width:1.28999996;stroke-linecap:butt;stroke-linejoin:round;stroke-miterlimit:4;stroke-dasharray:none;stroke-dashoffset:0;stroke-opacity:1"
     d="M 4.40625 2.59375 C 3.3855331 2.59375 2.5625 3.4167832 2.5625 4.4375 L 2.5625 31.8125 C 2.5625 32.833217 3.385533 33.656251 4.40625 33.65625 L 31.84375 33.65625 C 32.864467 33.65625 33.6875 32.833216 33.6875 31.8125 L 33.6875 4.4375 C 33.6875 3.4167831 32.864467 2.59375 31.84375 2.59375 L 4.40625 2.59375 z M 17.78125 6.625 L 18.46875 6.625 C 19.489467 6.625 20.3125 7.4480332 20.3125 8.46875 L 20.3125 15.9375 L 27.78125 15.9375 C 28.801967 15.9375 29.625 16.760533 29.625 17.78125 L 29.625 18.46875 C 29.625 19.489467 28.801967 20.3125 27.78125 20.3125 L 20.3125 20.3125 L 20.3125 27.78125 C 20.3125 28.801966 19.489467 29.625 18.46875 29.625 L 17.78125 29.625 C 16.760533 29.625001 15.9375 28.801967 15.9375 27.78125 L 15.9375 20.3125 L 8.46875 20.3125 C 7.4480331 20.3125 6.625 19.489467 6.625 18.46875 L 6.625 17.78125 C 6.625 16.760533 7.4480332 15.9375 8.46875 15.9375 L 15.9375 15.9375 L 15.9375 8.46875 C 15.9375 7.4480331 16.760533 6.625 17.78125 6.625 z "
     transform="matrix(0.8,0,0,0.8,13,43)"
     id="rect4027"
     inkscape:label="#iconBase" />
</svg>